<svg width="200" height="200" viewBox="0 0 100 100" xmlns="http://www.w3.org/2000/svg">
  <!-- Define the gradient for the tail -->
  <defs>
    <linearGradient id="streakGradient" x1="0%" y1="0%" x2="100%" y2="0%">
      <stop offset="0%" style="stop-color:#5390d9; stop-opacity:1" />
      <stop offset="100%" style="stop-color:#5e60ce; stop-opacity:0" />
    </linearGradient>
  </defs>

  <!-- Meteorite Body -->
  <g>
    <path d="M 30 20 C 35 15, 60 15, 70 30 C 85 45, 80 65, 65 75 C 50 85, 25 80, 20 60 C 15 40, 25 25, 30 20 Z" fill="#1a1a2e" stroke="#5e60ce" stroke-width="1.5" />
    <!-- Craters -->
    <circle cx="40" cy="35" r="3" fill="#0a0a1a" />
    <circle cx="60" cy="60" r="5" fill="#0a0a1a" />
    <circle cx="55" cy="30" r="2" fill="#0a0a1a" />
  </g>
  
  <!-- Digital Streaks / Tail -->
  <g transform="translate(20, 25)">
      <path d="M 50 20 Q 80 25, 110 30" stroke="url(#streakGradient)" stroke-width="4" fill="none" />
      <path d="M 50 25 Q 75 28, 100 35" stroke="url(#streakGradient)" stroke-width="2.5" fill="none" opacity="0.8" />
      <path d="M 50 30 Q 70 31, 90 32" stroke="url(#streakGradient)" stroke-width="1.5" fill="none" opacity="0.6" />
  </g>
</svg>